<?xml version="1.0" encoding="UTF-8"?>
<!DOCTYPE svg PUBLIC "-//W3C//DTD SVG 1.1//EN" "http://www.w3.org/Graphics/SVG/1.1/DTD/svg11.dtd">
<!-- Creator: CorelDRAW -->
<svg xmlns="http://www.w3.org/2000/svg" xml:space="preserve" width="3.6in" height="2.162in" version="1.1" style="shape-rendering:geometricPrecision; text-rendering:geometricPrecision; image-rendering:optimizeQuality; fill-rule:evenodd; clip-rule:evenodd"
viewBox="0 0 1005.79 604.03"
 xmlns:xlink="http://www.w3.org/1999/xlink"
 xmlns:xodm="http://www.corel.com/coreldraw/odm/2003">
 <defs>
  <style type="text/css">
   <![CDATA[
    .fil0 {fill:black}
    .fil1 {fill:white}
   ]]>
  </style>
 </defs>
 <g id="Layer_x0020_1">
  <metadata id="CorelCorpID_0Corel-Layer"/>
  <g id="_2244308124576">
   <path class="fil0" d="M179.08 560.57l19.99 -0.43 0.13 -20.34 41.65 -0.34c2.02,-2.5 1.79,2.93 1.85,-4.13l-0.54 -17.47 17.79 0.1c3.42,-0.51 2.49,0.89 3.37,-1.66 2.87,-4.11 1.24,-15.09 1.26,-20.77l697.11 -0.11 -0.26 -22.66c12.22,0.47 17.35,1.8 21.25,-0.72 1.28,-1.3 0.74,0.17 1.52,-2.72 0.43,-1.58 0.18,-0.75 0.34,-2.42l0.07 -17.04 21.19 0.04 -0.31 -404.84 -21.12 -0.13c-0.46,-4.13 -0.51,-7.66 -0.42,-11.82 0.02,-0.88 0.2,-6.2 0.15,-6.62 -0.62,-4.49 1.61,-1.95 -1.91,-4.08l-20.06 -0.08 -1.45 -22.15 -921.68 -0.17 -0.18 20.86 -23.19 0 0 23.57c-5.38,-0.22 -10.94,-0.35 -15.62,1.03l0.16 401.76 20.18 -0.57 0 23.92 23.35 0c1.42,9.65 -0.94,16.07 1.81,21.51l87.53 -0.2c2.42,15.25 0.5,64.27 0.5,84.78 0,4.15 -1.64,23.68 1.81,26.09 3.69,2.09 15.13,1.15 21.18,0.59l0.99 -22.01 21.71 -0.51 -0.14 -20.24zm-157.19 -114.92l23.7 0 0 23.06 88.79 0.15 0.57 22.34 21.98 0.12 0.57 67.65c6.03,-0.15 13.22,-0.85 19.12,0.42l0.14 -21.04c6.57,-0.3 13.69,-0.9 19.66,0.24l-0.13 -20.2c1.51,-2.14 0.18,-2.34 9.55,-2.26l34.47 -0.09 0.19 -22.04 23.53 -0.33 0.1 -21.08 695.5 -0.22 0.41 -22.94c7.19,-1.74 14.94,-0.87 22.19,-0.9l0.24 -402.47c-7.39,0.42 -15.3,0.92 -22.35,-0.75l-0.37 -22.88 -918.1 0.1 0 24.47 -18.89 0 -0.9 398.65z"/>
   <path class="fil1" d="M22.79 47l-0.9 398.65 23.7 0 0 23.06 88.79 0.15 0.57 22.34 21.98 0.12 0.57 67.65c6.03,-0.15 13.22,-0.85 19.12,0.42l0.14 -21.04c6.57,-0.3 13.69,-0.9 19.66,0.24l-0.13 -20.2c1.51,-2.14 0.18,-2.34 9.55,-2.26l34.47 -0.09 0.19 -22.04 23.53 -0.33 0.1 -21.08 695.5 -0.22 0.41 -22.94c7.19,-1.74 14.94,-0.87 22.19,-0.9l0.24 -402.47c-7.39,0.42 -15.3,0.92 -22.35,-0.75l-0.37 -22.88 -918.1 0.1 0 24.47 -18.89 0z"/>
  </g>
 </g>
</svg>
